# xmcd CD database file
#
# Track frame offsets:
#	150
#	27502
#	56783
#	85939
#	111333
#	140737
#	173366
#	204671
#	233117
#	261399
#
# Disc length: 3793 seconds
#
# Revision: 1
# Processed by: cddbd v1.5.2PL0 Copyright (c) Steve Scherf et al.
# Submitted via: CDex 1.70beta2
#
DISCID=900ecf0a
DTITLE=Metzner, Frank - Jazz Lounge
DYEAR=2010
DGENRE=Jazz
TTITLE0=Smooth Enchantment No. 1 
TTITLE1=Always Follow Your Dreams
TTITLE2=A Silent Prayer
TTITLE3=Sunny Days in the Park
TTITLE4=Groovy Kind of Soothing Jazz
TTITLE5=Funky Weekend
TTITLE6=Cool and Mellow Feelings
TTITLE7=Autumn Song
TTITLE8=Chilling all Night Long
TTITLE9=Dreaming with a Smile
EXTD=YEAR: 2010
EXTT0=
EXTT1=
EXTT2=
EXTT3=
EXTT4=
EXTT5=
EXTT6=
EXTT7=
EXTT8=
EXTT9=
PLAYORDER=
